<svg xmlns="http://www.w3.org/2000/svg" viewBox="0 0 96 96" role="img" aria-labelledby="title desc">
  <title id="title">Trade ticket</title>
  <desc id="desc">Locked planned trade ticket with no execution authority.</desc>
  <path d="M22 24h52a6 6 0 0 1 6 6v11a8 8 0 0 0 0 14v11a6 6 0 0 1-6 6H22a6 6 0 0 1-6-6V55a8 8 0 0 0 0-14V30a6 6 0 0 1 6-6Z" fill="#0d1724" stroke="#75bfff" stroke-width="3"/>
  <path d="M36 25v46" stroke="#20344f" stroke-width="3" stroke-dasharray="5 6"/>
  <path d="M47 39h19M47 51h13" stroke="#edf7ff" stroke-width="4" stroke-linecap="round"/>
  <rect x="52" y="57" width="20" height="14" rx="3" fill="#08101a" stroke="#e8ba40" stroke-width="3"/>
  <path d="M57 57v-5a5 5 0 0 1 10 0v5" fill="none" stroke="#e8ba40" stroke-width="3" stroke-linecap="round"/>
</svg>
